<svg xmlns="http://www.w3.org/2000/svg" viewBox="0 0 200 200" width="100%" height="100%">
  <defs>
    <linearGradient id="bg-kejriwal" x1="0%" y1="0%" x2="100%" y2="100%">
      <stop offset="0%" stop-color="#f0f9ff" />
      <stop offset="100%" stop-color="#e0f2fe" />
    </linearGradient>
    <linearGradient id="shirt-kejriwal" x1="0%" y1="0%" x2="0%" y2="100%">
      <stop offset="0%" stop-color="#0284c7" />
      <stop offset="100%" stop-color="#0369a1" />
    </linearGradient>
  </defs>
  <!-- Background Circle -->
  <circle cx="100" cy="100" r="96" fill="url(#bg-kejriwal)" stroke="#559dc2" stroke-width="4" />
  
  <!-- Shoulders / Sweater / Muffler -->
  <path d="M 25 185 Q 100 135 175 185 L 180 200 L 20 200 Z" fill="url(#shirt-kejriwal)" />
  <path d="M 70 140 C 70 170 130 170 130 140 Z" fill="#e2e8f0" stroke="#94a3b8" stroke-width="2" />

  <!-- Neck -->
  <rect x="86" y="115" width="28" height="28" fill="#f5cba7" rx="4" />

  <!-- Head -->
  <ellipse cx="100" cy="82" rx="36" ry="44" fill="#f8d7da" />

  <!-- Ears -->
  <circle cx="62" cy="82" r="7.5" fill="#f5cba7" />
  <circle cx="138" cy="82" r="7.5" fill="#f5cba7" />

  <!-- Hair -->
  <path d="M 62 72 C 58 45 74 38 100 38 C 126 38 142 45 138 72 C 130 48 118 42 100 42 C 82 42 70 48 62 72 Z" fill="#0f172a" />

  <!-- Mustache -->
  <path d="M 78 96 Q 100 90 122 96 Q 112 106 100 102 Q 88 106 78 96 Z" fill="#1e293b" />

  <!-- Eyebrows -->
  <path d="M 72 65 Q 82 60 90 65" fill="none" stroke="#0f172a" stroke-width="3" stroke-linecap="round" />
  <path d="M 110 65 Q 118 60 128 65" fill="none" stroke="#0f172a" stroke-width="3" stroke-linecap="round" />
  
  <!-- Eyes -->
  <circle cx="81" cy="73" r="3.8" fill="#0f172a" />
  <circle cx="119" cy="73" r="3.8" fill="#0f172a" />

  <!-- Glasses -->
  <rect x="70" y="66" width="24" height="15" rx="3" fill="none" stroke="#334155" stroke-width="2.5" />
  <rect x="106" y="66" width="24" height="15" rx="3" fill="none" stroke="#334155" stroke-width="2.5" />
  <line x1="94" y1="72" x2="106" y2="72" stroke="#334155" stroke-width="2.5" />
  <line x1="60" y1="72" x2="70" y2="72" stroke="#334155" stroke-width="2" />
  <line x1="130" y1="72" x2="140" y2="72" stroke="#334155" stroke-width="2" />

  <!-- Nose -->
  <path d="M 98 72 L 95 86 L 103 86" fill="none" stroke="#d97706" stroke-width="2.5" stroke-linecap="round" stroke-linejoin="round" />

  <!-- Mouth -->
  <path d="M 90 108 Q 100 114 110 108" fill="none" stroke="#b91c1c" stroke-width="2" />
</svg>
